<?xml version="1.0" standalone="no"?>
<!DOCTYPE svg PUBLIC "-//W3C//DTD SVG 20010904//EN"
 "http://www.w3.org/TR/2001/REC-SVG-20010904/DTD/svg10.dtd">
<svg version="1.0" xmlns="http://www.w3.org/2000/svg"
 width="1024.000000pt" height="1024.000000pt" viewBox="0 0 1024.000000 1024.000000"
 preserveAspectRatio="xMidYMid meet">
<metadata>
Created by potrace 1.11, written by Peter Selinger 2001-2013
</metadata>
<g transform="translate(0.000000,1024.000000) scale(0.100000,-0.100000)"
fill="#000000" stroke="none">
<path d="M2120 10232 c0 -4 -50 -14 -111 -20 -61 -7 -180 -30 -263 -52 -370
-94 -684 -261 -973 -517 -45 -40 -87 -73 -92 -73 -6 0 -11 -5 -11 -11 0 -5
-33 -47 -73 -92 -137 -155 -236 -298 -330 -477 -127 -241 -223 -560 -243 -802
-4 -43 -11 -78 -15 -78 -5 0 -9 -1340 -9 -2995 0 -1990 3 -2995 10 -2995 6 0
10 -17 10 -39 0 -66 40 -280 76 -404 63 -218 161 -433 288 -627 66 -101 203
-275 255 -324 17 -17 31 -36 31 -43 0 -7 6 -13 13 -13 7 0 26 -14 43 -31 49
-52 223 -189 324 -255 194 -127 409 -225 627 -288 124 -36 338 -76 404 -76 22
0 39 -4 39 -10 0 -7 1007 -10 3000 -10 1993 0 3000 3 3000 10 0 6 18 10 39 10
55 0 248 34 365 65 339 88 696 284 958 524 36 34 71 61 77 61 6 0 11 6 11 13
0 7 14 26 31 43 52 49 189 223 255 324 127 194 225 409 288 627 36 124 76 338
76 404 0 22 5 39 10 39 7 0 10 1007 10 3000 0 1650 -4 3000 -8 3000 -4 0 -14
50 -20 111 -16 143 -80 391 -138 538 -237 600 -710 1072 -1308 1306 -152 59
-392 121 -535 137 -61 6 -111 16 -111 20 0 4 -1350 8 -3000 8 -1650 0 -3000
-4 -3000 -8z"/>
</g>
</svg>
